<?xml version="1.0" encoding="utf-8"?>
<!-- Generator: Adobe Illustrator 16.0.0, SVG Export Plug-In . SVG Version: 6.00 Build 0)  -->
<!DOCTYPE svg PUBLIC "-//W3C//DTD SVG 1.1//EN" "http://www.w3.org/Graphics/SVG/1.1/DTD/svg11.dtd">
<svg version="1.1" id="Layer_1" xmlns="http://www.w3.org/2000/svg" xmlns:xlink="http://www.w3.org/1999/xlink" x="0px" y="0px"
	 width="370.7px" height="53.8px" viewBox="0 0 370.7 53.8" enable-background="new 0 0 370.7 53.8" xml:space="preserve">
<g>
	<path fill="#FF7888" d="M105.3,1.4c-0.4-0.7-1.1-1.4-1.9-1.4H46.6c-0.8,0-1.5,0.7-1.9,1.4L30.6,25.6c-0.4,0.7-0.4,1.6,0,2.3
		l14.1,24.4c0.4,0.7,1.1,1.5,1.9,1.5h56.8c0.8,0,1.5-0.7,1.9-1.4l14.1-24.2c0.4-0.7,0.4-1.8,0-2.5L105.3,1.4z M47.9,4.6h30.8
		L39.9,34.9l-4.8-8.3L47.9,4.6z M42.2,39L86,4.6h16.1l5.4,9.7L61.8,49.2H47.9L42.2,39z M102.1,49.2H69.3l40.6-30.7l5.1,8.8
		L102.1,49.2z"/>
	<path fill="#FF7888" d="M28.5,24.8L3.4,10.1c-0.7-0.4-1.5-0.4-2.2,0c-0.8,0.4-1.2,1.2-1.2,2v29.1c0,0.8,0.4,1.5,1.1,1.9
		c0.3,0.2,0.7,0.3,1.1,0.3c0.4,0,0.8-0.1,1.1-0.3l25.2-14.4c0.7-0.4,1.1-1.1,1.1-1.9C29.6,25.9,29.2,25.2,28.5,24.8z M4.6,37.3V16
		l18.5,10.7L4.6,37.3z"/>
	<path fill="#FF7888" d="M149.2,10.1c-0.7-0.4-1.7-0.4-2.4,0l-25.2,14.6c-0.7,0.4-1.1,1.1-1.1,1.9c0,0.8,0.4,1.5,1.1,1.9l25.2,14.4
		c0.3,0.2,0.7,0.3,1.1,0.3s1-0.1,1.4-0.3c0.7-0.4,1.4-1.1,1.4-1.9V12.1C150.6,11.3,149.9,10.5,149.2,10.1z M146,37.3l-18.5-10.6
		L146,16V37.3z"/>
</g>
<g>
	<path fill="#494949" d="M210.6,42.3c0.4,0,0.7,0.2,1,0.5l2.8,3c-2.2,2.5-4.8,4.4-7.8,5.8c-3.1,1.4-6.8,2.1-11.1,2.1
		c-3.8,0-7.2-0.7-10.3-2c-3.1-1.3-5.7-3.1-7.9-5.5c-2.2-2.4-3.9-5.2-5.1-8.5c-1.2-3.3-1.8-6.9-1.8-10.9c0-4,0.6-7.6,1.9-10.9
		c1.2-3.3,3-6.1,5.3-8.5c2.3-2.4,5-4.2,8.1-5.5c3.2-1.3,6.6-2,10.5-2c3.7,0,7,0.6,9.9,1.8c2.9,1.2,5.4,2.8,7.6,4.9l-2.3,3.3
		c-0.1,0.2-0.3,0.4-0.6,0.6c-0.2,0.2-0.5,0.2-0.9,0.2s-1-0.2-1.6-0.7c-0.6-0.5-1.5-1-2.5-1.6s-2.3-1.1-3.9-1.6
		c-1.5-0.5-3.4-0.7-5.7-0.7c-2.7,0-5.2,0.5-7.5,1.4c-2.3,0.9-4.2,2.3-5.8,4.1c-1.6,1.8-2.9,4-3.8,6.5s-1.4,5.5-1.4,8.7
		c0,3.3,0.5,6.2,1.4,8.8s2.2,4.7,3.9,6.5c1.6,1.8,3.5,3.1,5.8,4.1c2.2,0.9,4.6,1.4,7.2,1.4c1.6,0,3-0.1,4.2-0.3
		c1.3-0.2,2.4-0.5,3.5-0.9s2.1-0.9,3-1.5s1.8-1.3,2.7-2.1C209.7,42.5,210.2,42.3,210.6,42.3z"/>
	<path fill="#494949" d="M265.3,0.6v52.6h-3.6c-0.6,0-1-0.1-1.4-0.3c-0.4-0.2-0.8-0.5-1.1-1l-30.4-39.6c0,0.6,0.1,1.2,0.1,1.8
		s0,1.1,0,1.7v37.5h-6.2V0.6h3.7c0.3,0,0.6,0,0.8,0.1c0.2,0,0.4,0.1,0.6,0.2c0.2,0.1,0.3,0.2,0.5,0.4c0.2,0.2,0.4,0.4,0.6,0.6
		l30.4,39.6c0-0.6-0.1-1.3-0.1-1.9s-0.1-1.2-0.1-1.7V0.6H265.3z"/>
	<path fill="#494949" d="M324.3,26.9c0,3.9-0.6,7.5-1.9,10.8c-1.2,3.2-3,6-5.3,8.3c-2.3,2.3-5,4.1-8.2,5.3
		c-3.2,1.3-6.7,1.9-10.6,1.9h-19.6V0.6h19.6c3.9,0,7.4,0.6,10.6,1.9s5.9,3,8.2,5.4c2.3,2.4,4,5.1,5.3,8.3
		C323.7,19.4,324.3,23,324.3,26.9z M317,26.9c0-3.2-0.4-6.1-1.3-8.7c-0.9-2.5-2.1-4.7-3.7-6.5c-1.6-1.8-3.6-3.1-5.9-4
		c-2.3-0.9-4.9-1.4-7.7-1.4h-12.5v41.1h12.5c2.8,0,5.4-0.5,7.7-1.4c2.3-0.9,4.3-2.3,5.9-4c1.6-1.7,2.9-3.9,3.7-6.4
		C316.5,33.1,317,30.1,317,26.9z"/>
	<path fill="#494949" d="M351.4,32.2v21h-7.1v-21L325.1,0.6h6.2c0.6,0,1.1,0.2,1.5,0.5c0.4,0.3,0.7,0.7,1,1.2l12,20.4
		c0.4,0.9,0.8,1.7,1.2,2.4c0.4,0.7,0.7,1.5,1,2.3c0.3-0.8,0.6-1.5,0.9-2.3c0.3-0.7,0.7-1.5,1.1-2.4l12-20.4c0.2-0.4,0.5-0.8,0.9-1.1
		c0.4-0.3,0.9-0.5,1.5-0.5h6.3L351.4,32.2z"/>
</g>
</svg>
