<?xml version="1.0" encoding="utf-8"?>
<!-- Generator: Adobe Illustrator 16.0.0, SVG Export Plug-In . SVG Version: 6.00 Build 0)  -->
<!DOCTYPE svg PUBLIC "-//W3C//DTD SVG 1.1//EN" "http://www.w3.org/Graphics/SVG/1.1/DTD/svg11.dtd">
<svg version="1.1" id="Layer_1" xmlns="http://www.w3.org/2000/svg" xmlns:xlink="http://www.w3.org/1999/xlink" x="0px" y="0px"
	 width="150.6px" height="53.8px" viewBox="0 0 150.6 53.8" enable-background="new 0 0 150.6 53.8" xml:space="preserve">
<g>
	<path fill="#010101" d="M105.3,1.4c-0.4-0.7-1.1-1.4-1.9-1.4H46.6c-0.8,0-1.5,0.7-1.9,1.4L30.6,25.6c-0.4,0.7-0.4,1.6,0,2.3
		l14.1,24.4c0.4,0.7,1.1,1.5,1.9,1.5h56.8c0.8,0,1.5-0.7,1.9-1.4l14.1-24.2c0.4-0.7,0.4-1.8,0-2.5L105.3,1.4z M47.9,4.6h30.8
		L39.9,34.9l-4.8-8.3L47.9,4.6z M42.2,39L86,4.6h16.1l5.4,9.7L61.8,49.2H47.9L42.2,39z M102.1,49.2H69.3l40.6-30.7l5.1,8.8
		L102.1,49.2z"/>
	<path fill="#010101" d="M28.5,24.8L3.4,10.1c-0.7-0.4-1.5-0.4-2.2,0C0.4,10.5,0,11.3,0,12.1v29.1c0,0.8,0.4,1.5,1.1,1.9
		c0.3,0.2,0.7,0.3,1.1,0.3c0.4,0,0.8-0.1,1.1-0.3l25.2-14.4c0.7-0.4,1.1-1.1,1.1-1.9C29.6,25.9,29.2,25.2,28.5,24.8z M4.6,37.3V16
		l18.5,10.7L4.6,37.3z"/>
	<path fill="#010101" d="M149.2,10.1c-0.7-0.4-1.7-0.4-2.4,0l-25.2,14.6c-0.7,0.4-1.1,1.1-1.1,1.9c0,0.8,0.4,1.5,1.1,1.9l25.2,14.4
		c0.3,0.2,0.7,0.3,1.1,0.3c0.4,0,1-0.1,1.4-0.3c0.7-0.4,1.4-1.1,1.4-1.9V12.1C150.6,11.3,149.9,10.5,149.2,10.1z M146,37.3
		l-18.5-10.6L146,16V37.3z"/>
</g>
</svg>
