<?xml version="1.0" encoding="utf-8"?>
<!-- Generator: Adobe Illustrator 16.0.0, SVG Export Plug-In . SVG Version: 6.00 Build 0)  -->
<!DOCTYPE svg PUBLIC "-//W3C//DTD SVG 1.1//EN" "http://www.w3.org/Graphics/SVG/1.1/DTD/svg11.dtd">
<svg version="1.1" id="Layer_1" xmlns="http://www.w3.org/2000/svg" xmlns:xlink="http://www.w3.org/1999/xlink" x="0px" y="0px"
	 width="200.3px" height="53.8px" viewBox="0 0 200.3 53.8" enable-background="new 0 0 200.3 53.8" xml:space="preserve">
<g>
	<path d="M40.2,42.3c0.4,0,0.7,0.2,1,0.5l2.8,3c-2.2,2.5-4.8,4.4-7.8,5.8c-3.1,1.4-6.8,2.1-11.1,2.1c-3.8,0-7.2-0.7-10.3-2
		c-3.1-1.3-5.7-3.1-7.9-5.5c-2.2-2.4-3.9-5.2-5.1-8.5C0.6,34.5,0,30.9,0,26.9c0-4,0.6-7.6,1.9-10.9c1.2-3.3,3-6.1,5.3-8.5
		c2.3-2.4,5-4.2,8.1-5.5c3.2-1.3,6.6-2,10.5-2c3.7,0,7,0.6,9.9,1.8C38.5,3,41,4.6,43.2,6.7l-2.3,3.3c-0.1,0.2-0.3,0.4-0.6,0.6
		c-0.2,0.2-0.5,0.2-0.9,0.2c-0.4,0-1-0.2-1.6-0.7c-0.6-0.5-1.5-1-2.5-1.6c-1-0.6-2.3-1.1-3.9-1.6c-1.5-0.5-3.4-0.7-5.7-0.7
		c-2.7,0-5.2,0.5-7.5,1.4c-2.3,0.9-4.2,2.3-5.8,4.1c-1.6,1.8-2.9,4-3.8,6.5s-1.4,5.5-1.4,8.7c0,3.3,0.5,6.2,1.4,8.8s2.2,4.7,3.9,6.5
		c1.6,1.8,3.5,3.1,5.8,4.1c2.2,0.9,4.6,1.4,7.2,1.4c1.6,0,3-0.1,4.2-0.3c1.3-0.2,2.4-0.5,3.5-0.9s2.1-0.9,3-1.5
		c0.9-0.6,1.8-1.3,2.7-2.1C39.3,42.5,39.7,42.3,40.2,42.3z"/>
	<path d="M94.9,0.6v52.6h-3.6c-0.6,0-1-0.1-1.4-0.3c-0.4-0.2-0.8-0.5-1.1-1L58.4,12.3c0,0.6,0.1,1.2,0.1,1.8c0,0.6,0,1.1,0,1.7v37.5
		h-6.2V0.6h3.7c0.3,0,0.6,0,0.8,0.1c0.2,0,0.4,0.1,0.6,0.2c0.2,0.1,0.3,0.2,0.5,0.4s0.4,0.4,0.6,0.6l30.4,39.6
		c0-0.6-0.1-1.3-0.1-1.9c0-0.6-0.1-1.2-0.1-1.7V0.6H94.9z"/>
	<path d="M153.9,26.9c0,3.9-0.6,7.5-1.9,10.8s-3,6-5.3,8.3s-5,4.1-8.2,5.3c-3.2,1.3-6.7,1.9-10.6,1.9h-19.6V0.6H128
		c3.9,0,7.4,0.6,10.6,1.9c3.2,1.3,5.9,3,8.2,5.4s4,5.1,5.3,8.3C153.3,19.4,153.9,23,153.9,26.9z M146.6,26.9c0-3.2-0.4-6.1-1.3-8.7
		c-0.9-2.5-2.1-4.7-3.7-6.5s-3.6-3.1-5.9-4c-2.3-0.9-4.9-1.4-7.7-1.4h-12.5v41.1H128c2.8,0,5.4-0.5,7.7-1.4c2.3-0.9,4.3-2.3,5.9-4
		s2.9-3.9,3.7-6.4S146.6,30.1,146.6,26.9z"/>
	<path d="M181,32.2v21h-7.1v-21L154.6,0.6h6.2c0.6,0,1.1,0.2,1.5,0.5s0.7,0.7,1,1.2l12,20.4c0.4,0.9,0.8,1.7,1.2,2.4
		c0.4,0.7,0.7,1.5,1,2.3c0.3-0.8,0.6-1.5,0.9-2.3c0.3-0.7,0.7-1.5,1.1-2.4l12-20.4c0.2-0.4,0.5-0.8,0.9-1.1c0.4-0.3,0.9-0.5,1.5-0.5
		h6.3L181,32.2z"/>
</g>
</svg>
